# xmcd CD database file generated by OrangeCD 4.3
#
# Track frame offsets:
#	150
#	8292
#	18739
#	30853
#	42190
#	51900
#	60122
#	73246
#	82125
#	91170
#	100215
#	112109
#	123722
#	133189
#	144447
#	156369
#	171232
#	182916
#	194813
#	205716
#	216962
#	227987
#	238450
#	249993
#
# Disc length: 3489 seconds
#
# Revision: 0
# Processed by: cddbd v1.4PL0 Copyright (c) Steve Scherf et al.
# Submitted via: OrangeCD 4.3
#
DISCID=5f0d9f18
DTITLE=Various Artist - When Blues Goes Boppin and Jivin Vol. 1
DYEAR=1900
DGENRE=Blues
TTITLE0=Joe Turner - Love Roller Coaster
TTITLE1=Larry Dale - Drinkin Wine Spo-Dee-O-Dee
TTITLE2=Wynonie Harris - Bloodshot Eyes
TTITLE3=Roy Brown - Ain't No Rockin No More
TTITLE4=Shirley Gunter and The Queens - Oop Shoop
TTITLE5=Donnie Elbert - Peek-A-Boo
TTITLE6=Sandra Grimms - Hallelujah R "N" R
TTITLE7=Linda Hayes - You Ain't Movin' Me
TTITLE8=Etta James - That's All
TTITLE9=Roy Brown - Fannie Brown Got Married
TTITLE10=Jimmy McCracklin - Let's Do It
TTITLE11=Tiny Bradshaw - Well Oh Well
TTITLE12=Curley Hamner - King and Queen
TTITLE13=Liz Miller - I'm Gonna Try
TTITLE14=Wynonie Harris - A Tale of Woe
TTITLE15=Louis Jordan - Is You Is Or Is You Ain't
TTITLE16=Varetta Dillard - That's Why I Cry
TTITLE17=Johnny Copeland - Just One More Time
TTITLE18=Clarence Daniels - Hard Working Girl
TTITLE19=Z.Z. Hill - One Way Love Affair
TTITLE20=Buddy Ace - True Love, Money Can't Buy
TTITLE21=Little Bob - You Know It Ain't Right
TTITLE22=Jimmy McCracklin - Dog
TTITLE23=Ruben Fort - So Good
EXTD=
EXTT0=
EXTT1=
EXTT2=
EXTT3=
EXTT4=
EXTT5=
EXTT6=
EXTT7=
EXTT8=
EXTT9=
EXTT10=
EXTT11=
EXTT12=
EXTT13=
EXTT14=
EXTT15=
EXTT16=
EXTT17=
EXTT18=
EXTT19=
EXTT20=
EXTT21=
EXTT22=
EXTT23=
PLAYORDER=
